<?xml version="1.0" standalone="no"?>
<!DOCTYPE svg PUBLIC "-//W3C//DTD SVG 20010904//EN"
 "http://www.w3.org/TR/2001/REC-SVG-20010904/DTD/svg10.dtd">
<svg version="1.0" xmlns="http://www.w3.org/2000/svg"
 width="511.000000pt" height="511.000000pt" viewBox="0 0 511.000000 511.000000"
 preserveAspectRatio="xMidYMid meet">
<metadata>
Created by potrace 1.16, written by Peter Selinger 2001-2019
</metadata>
<g transform="translate(0.000000,511.000000) scale(0.100000,-0.100000)"
fill="#000000" stroke="none">
<path d="M1 3938 c1 -1042 3 -1160 15 -1061 99 820 612 1540 1356 1906 631
310 1349 339 1998 80 622 -248 1132 -758 1373 -1373 44 -112 108 -319 121
-391 l6 -36 -62 -18 c-51 -15 -58 -20 -36 -23 15 -2 44 1 64 7 21 6 39 9 40 8
6 -7 34 -238 30 -246 -3 -5 -34 -7 -69 -4 -50 4 -60 3 -50 -7 7 -7 37 -15 67
-18 53 -4 54 -5 60 -41 9 -55 7 -213 -5 -346 -52 -601 -308 -1140 -740 -1561
-344 -335 -781 -563 -1249 -653 -241 -46 -602 -53 -833 -16 -454 71 -880 266
-1227 560 -116 99 -381 387 -380 413 1 11 85 60 200 117 77 38 121 54 163 58
43 4 67 12 93 34 70 56 80 60 102 40 11 -10 23 -34 27 -54 4 -23 10 -32 16
-26 6 6 0 39 -16 92 -31 98 -30 125 5 129 21 2 36 -12 99 -98 41 -56 88 -113
105 -127 17 -14 48 -41 69 -59 37 -34 37 -34 21 -65 -17 -34 -8 -33 32 2 19
18 24 18 90 4 38 -8 83 -15 100 -15 26 0 33 -5 39 -27 3 -15 22 -44 41 -65 19
-21 34 -46 34 -56 0 -39 -21 -88 -47 -109 l-28 -23 32 0 c29 0 33 4 52 58 30
80 44 104 82 130 60 42 104 41 156 -1 17 -15 41 -24 60 -24 59 0 110 -31 142
-87 16 -28 53 -73 82 -101 30 -27 62 -61 72 -75 l17 -25 -6 30 c-8 36 -31 65
-53 65 -22 0 -91 108 -91 141 0 15 8 37 18 49 35 43 231 77 283 50 11 -6 25
-25 32 -42 l13 -32 24 40 c13 21 28 42 34 46 29 19 72 -51 60 -98 -5 -18 -2
-24 10 -24 19 0 19 -1 6 -35 -7 -18 -6 -31 2 -45 9 -14 9 -25 0 -44 -9 -21 -6
-41 23 -127 19 -57 40 -108 45 -113 16 -16 12 21 -6 55 -9 19 -14 49 -12 82
l3 52 47 -1 c35 0 54 -6 71 -22 13 -12 34 -22 46 -22 13 0 51 -21 84 -46 34
-26 68 -43 76 -40 9 2 34 12 56 20 22 8 65 16 95 17 l55 2 -51 9 c-40 8 -63 7
-105 -5 l-54 -16 -60 39 c-33 21 -87 50 -120 65 -58 25 -165 116 -165 140 0
18 53 62 82 69 14 3 41 22 60 42 18 19 42 40 53 47 23 13 115 19 302 21 l132
1 31 -30 c18 -16 55 -58 82 -93 46 -57 53 -62 79 -57 15 4 49 3 75 -1 39 -6
57 -16 96 -55 37 -37 50 -45 54 -34 13 32 -108 101 -194 112 -28 3 -54 8 -59
12 -21 15 -123 151 -123 164 0 8 6 20 14 26 7 6 21 39 31 73 28 100 91 147
146 108 16 -12 74 -41 127 -63 88 -37 105 -41 184 -42 57 0 91 4 100 13 6 6
22 12 34 12 26 0 74 -36 74 -56 0 -9 11 -14 30 -14 17 0 44 -10 60 -22 16 -12
32 -19 35 -17 4 4 -106 94 -149 121 -7 5 -4 14 10 29 19 18 25 19 45 8 21 -11
23 -11 11 3 -8 10 -10 26 -6 44 5 18 3 25 -4 20 -6 -3 -30 21 -54 54 -23 33
-48 60 -54 60 -16 0 -38 29 -30 37 4 4 11 1 17 -7 7 -12 11 -12 17 -2 20 30
105 -37 121 -94 l8 -29 16 32 c20 37 22 115 6 164 -11 30 -61 106 -121 181
l-21 27 31 64 c54 110 130 153 256 144 68 -5 85 -10 130 -40 73 -50 85 -55
181 -77 97 -23 105 -23 105 -11 0 4 -28 14 -62 20 -35 6 -76 14 -91 17 -22 5
-109 62 -167 111 -2 2 20 26 50 53 66 59 52 66 -19 10 -28 -22 -63 -45 -77
-50 -37 -14 -95 -12 -145 5 -84 30 -96 61 -54 141 14 26 25 62 25 81 0 41 38
83 75 83 14 0 40 -6 58 -13 59 -25 104 -29 138 -12 24 13 37 14 61 6 41 -15
55 -14 40 2 -8 7 -45 12 -100 13 -84 0 -89 2 -144 39 -32 21 -58 41 -58 44 0
13 148 101 185 110 22 5 33 10 25 10 -31 3 -41 19 -56 87 -15 72 -11 133 9
135 7 1 62 2 122 3 136 3 235 15 235 29 0 17 -34 36 -65 37 -84 1 -96 32 -45
113 16 26 26 47 21 47 -12 0 -56 -54 -92 -113 -30 -49 -79 -87 -114 -87 -11 0
-37 12 -58 26 -23 15 -70 32 -115 41 -88 18 -98 24 -107 62 -3 16 -16 42 -29
59 -20 28 -22 37 -14 98 4 37 9 68 11 70 1 2 24 -5 51 -14 l48 -17 24 29 c31
36 25 43 -20 22 -59 -28 -97 -15 -110 37 -10 43 -87 142 -128 166 -20 11 -50
21 -67 21 -35 0 -48 15 -25 28 13 7 15 17 10 46 -6 29 -10 35 -20 27 -7 -6
-11 -22 -9 -35 4 -18 -2 -29 -19 -40 -23 -15 -27 -15 -56 0 -20 9 -32 23 -32
35 0 46 -77 149 -112 149 -24 0 3 26 62 59 64 36 65 37 62 77 -2 28 3 47 17
65 18 22 26 24 117 24 l98 0 7 33 c9 45 36 72 73 72 17 1 45 7 61 15 35 16 16
19 -35 6 -19 -5 -48 -12 -63 -15 -21 -5 -33 -18 -48 -51 -22 -50 -24 -51 -92
-30 l-49 15 -95 -66 c-52 -36 -98 -63 -101 -60 -3 4 -7 27 -8 52 -2 26 -7 51
-11 55 -12 12 -113 14 -203 5 -71 -8 -79 -6 -141 22 -81 37 -94 52 -44 52 54
0 115 60 121 120 5 44 5 45 -10 19 -23 -39 -62 -62 -85 -49 -21 11 -51 4 -51
-12 0 -7 -22 -9 -62 -4 -47 5 -68 12 -88 31 -19 19 -37 25 -68 25 -38 0 -42 2
-42 25 0 34 -32 49 -73 35 -39 -13 -63 -33 -100 -83 -44 -58 -50 -33 -11 44
52 102 41 114 -27 29 -84 -103 -78 -101 -138 -69 -22 11 -46 17 -52 13 -13 -7
-9 36 10 126 10 46 -2 81 -15 44 -4 -10 -27 -54 -52 -97 -30 -53 -48 -75 -55
-68 -8 8 -1 166 16 335 5 45 -20 20 -46 -45 -28 -74 -30 -112 -2 -44 9 20 18
35 21 32 3 -2 0 -58 -5 -123 -6 -66 -11 -125 -11 -132 0 -10 -11 -12 -42 -8
-22 3 -42 7 -43 8 -2 2 8 36 21 77 33 100 25 114 -11 18 -30 -84 -45 -104 -45
-62 0 34 -24 28 -28 -6 -3 -22 -7 -24 -37 -21 -18 2 -36 10 -39 18 -3 7 -8 55
-12 106 -8 125 -10 133 -20 131 -5 -1 -14 -44 -21 -95 -7 -51 -17 -100 -22
-109 -5 -8 -6 -28 -4 -44 8 -40 -14 -24 -26 20 -6 24 -5 45 5 75 12 35 12 45
0 74 -8 19 -23 39 -34 45 -38 20 -40 11 -6 -23 33 -33 43 -59 25 -70 -5 -3
-11 1 -15 9 -9 24 -23 17 -29 -15 -6 -26 -11 -30 -41 -30 -34 0 -34 1 -56 72
-16 53 -19 77 -12 89 8 13 6 19 -13 29 -13 7 -28 9 -34 6 -17 -11 -83 29 -143
88 -43 42 -64 56 -85 55 l-28 -1 27 -12 c15 -6 49 -35 76 -63 33 -35 65 -57
101 -69 59 -22 56 -12 71 -209 l10 -129 -27 -23 c-16 -12 -31 -22 -35 -23 -3
0 -35 36 -69 80 -56 71 -89 97 -89 71 0 -4 14 -41 30 -81 17 -41 27 -77 22
-82 -12 -12 -136 7 -164 26 -27 18 -183 35 -158 17 8 -6 31 -11 51 -11 36 0
64 -21 88 -67 15 -29 14 -30 -11 -37 -13 -3 -36 -24 -52 -46 -31 -41 -64 -55
-120 -48 -26 3 -30 -2 -44 -39 -13 -35 -14 -51 -5 -85 9 -34 9 -46 -1 -56 -22
-22 -49 30 -41 78 4 21 3 40 -2 43 -4 2 -27 -4 -49 -14 l-42 -19 34 -36 c40
-41 43 -62 12 -68 -119 -25 -120 -25 -184 1 -34 13 -70 33 -80 44 -16 18 -17
21 -1 55 9 19 17 36 17 38 0 3 -18 19 -40 36 -44 35 -50 35 -19 -1 16 -19 20
-35 17 -86 -1 -36 2 -67 8 -73 6 -6 38 -20 70 -30 l59 -18 -1 -44 c-2 -59 -32
-114 -89 -167 -55 -51 -100 -71 -169 -76 -28 -2 -52 -4 -54 -5 -1 0 12 -13 30
-28 31 -29 31 -30 35 -138 3 -60 1 -127 -4 -149 -8 -34 -13 -40 -42 -46 -18
-4 -46 -16 -62 -28 -60 -45 -124 -10 -154 84 -15 50 -16 80 -3 135 2 11 -8 16
-42 17 -44 3 -45 3 -19 -12 23 -12 27 -22 32 -86 3 -40 4 -76 1 -81 -3 -4 -33
-9 -67 -9 l-62 -2 74 -7 c63 -7 78 -12 105 -39 18 -17 36 -31 41 -31 6 0 16
-4 23 -8 19 -12 -21 -97 -50 -107 l-23 -8 23 -4 c30 -6 29 -51 -2 -88 -30 -34
-49 -107 -45 -167 2 -24 0 -42 -4 -40 -4 1 -11 2 -16 2 -4 0 -28 16 -52 35
-35 28 -53 35 -87 35 -49 0 -49 -15 0 -24 18 -3 58 -26 88 -51 30 -25 59 -45
64 -45 5 0 6 -18 2 -39 l-6 -39 40 10 c34 9 44 8 59 -7 11 -9 39 -22 63 -29
38 -12 43 -17 46 -45 2 -20 12 -37 27 -47 12 -8 29 -29 36 -46 13 -31 12 -33
-26 -62 -62 -49 -131 -116 -120 -116 6 0 33 20 62 45 28 25 56 45 62 45 16 0
31 -34 24 -58 -8 -32 2 -27 26 13 22 37 41 46 41 19 0 -9 15 -51 34 -93 19
-42 38 -88 41 -103 4 -15 23 -41 42 -58 l34 -30 -20 -56 c-12 -30 -21 -64 -21
-74 0 -11 -3 -20 -7 -20 -5 0 -39 21 -77 45 -38 25 -75 45 -82 45 -7 0 -36 -9
-64 -20 l-51 -20 -25 27 c-13 16 -31 40 -39 54 -13 25 -12 30 14 69 15 23 54
68 86 101 32 32 55 59 51 59 -4 0 -37 -25 -72 -55 -68 -57 -93 -66 -115 -39
-10 12 -10 22 -2 45 11 28 10 30 -10 24 -33 -9 -70 -27 -91 -45 -10 -8 -34
-20 -54 -25 -83 -24 -111 -141 -51 -216 28 -36 35 -39 78 -39 86 0 146 36 101
60 -26 14 -26 30 0 30 13 0 18 -5 14 -15 -4 -8 -1 -15 5 -15 6 0 11 -7 11 -15
0 -25 68 -30 142 -11 62 16 69 16 99 0 45 -23 97 -80 108 -119 5 -18 6 -54 4
-79 l-6 -46 -101 -49 c-55 -27 -122 -58 -148 -69 -26 -11 -94 -48 -152 -81
-151 -87 -145 -87 -202 1 -223 343 -355 720 -397 1128 -2 19 -5 -502 -5 -1157
l-2 -1193 2555 0 2555 0 0 2555 0 2555 -2555 0 -2555 0 1 -1172z m2008 165
c23 -78 41 -148 41 -156 0 -16 -32 -33 -77 -41 -31 -5 -33 -4 -32 22 1 17 3
20 6 10 2 -10 9 -18 13 -18 9 0 7 121 -5 290 -6 86 4 66 54 -107z m-169 -74
c20 -20 60 -77 60 -84 0 -3 -7 -5 -15 -5 -19 0 -19 -5 0 -110 8 -47 15 -86 15
-87 0 -2 4 -3 8 -3 5 0 6 22 2 49 -7 54 1 57 26 9 15 -29 14 -31 -7 -54 -31
-33 -12 -55 25 -28 29 22 31 34 12 73 -8 15 -13 39 -10 52 3 19 3 20 -4 5 -8
-17 -9 -17 -25 7 -21 32 -24 72 -4 46 7 -9 28 -18 48 -22 33 -5 41 -1 73 32
20 20 36 44 36 53 0 9 5 20 10 23 6 3 10 -1 10 -9 0 -9 7 -16 15 -16 8 0 15 9
15 20 0 19 1 19 34 3 33 -15 37 -15 76 5 l41 20 -8 -47 c-13 -84 -10 -106 14
-109 12 -2 31 2 42 8 18 9 20 18 17 70 -2 33 0 60 5 60 14 0 11 28 -3 33 -7 3
-3 6 10 6 16 1 22 7 23 24 0 17 3 15 14 -13 7 -19 14 -27 14 -17 1 9 4 17 9
17 12 -1 42 -74 42 -103 0 -29 32 -57 67 -57 18 0 23 6 23 28 1 23 2 24 11 10
6 -10 16 -15 26 -11 13 5 15 2 9 -18 -18 -56 7 -93 68 -105 20 -3 36 -12 36
-19 0 -12 34 -29 53 -26 4 1 7 -4 7 -9 0 -6 -7 -10 -15 -10 -8 0 -15 -7 -15
-15 0 -18 -3 -17 38 -6 l32 10 -35 -43 c-19 -24 -35 -46 -35 -50 0 -16 23 -3
50 28 34 38 108 63 138 47 44 -23 81 -101 49 -101 -8 0 -17 6 -20 13 -3 9 -11
9 -33 -3 -36 -19 -43 -59 -17 -94 22 -31 43 -33 43 -6 0 13 7 20 20 20 37 0
18 -44 -42 -99 -21 -19 -38 -39 -38 -44 0 -5 -16 -32 -35 -58 -24 -34 -37 -64
-40 -96 -9 -84 -27 -188 -34 -198 -4 -5 -13 -30 -20 -55 -20 -69 -33 -100 -41
-100 -4 0 -12 -11 -18 -24 -20 -45 -102 -145 -169 -209 -36 -33 -141 -90 -153
-82 -4 2 -38 -4 -76 -14 -38 -10 -85 -19 -104 -20 -50 -1 -169 18 -213 35 -21
8 -43 12 -48 8 -5 -3 -16 -1 -23 5 -8 7 -18 11 -22 10 -16 -4 -59 19 -91 49
-17 16 -34 27 -37 24 -3 -3 -6 2 -6 11 0 9 -11 28 -25 43 -46 50 -60 92 -60
185 0 47 5 97 11 110 52 112 53 117 20 156 -34 40 -52 90 -65 173 -10 65 -10
75 6 92 10 11 13 22 8 26 -6 4 -10 17 -11 30 0 16 4 21 14 17 8 -3 21 3 28 12
7 10 14 13 14 6 0 -27 40 3 61 45 12 26 26 55 31 65 7 14 5 24 -7 37 -15 17
-14 22 24 78 23 33 41 62 41 65 0 2 -10 7 -22 11 -14 4 -19 9 -12 13 6 5 14
17 18 27 6 19 7 19 22 0 14 -18 15 -16 9 21 -4 22 -10 45 -15 50 -11 14 -70
164 -70 178 0 7 13 -4 28 -23 15 -19 34 -42 42 -51z m1267 -121 c7 -5 19 -8
27 -5 17 7 102 -32 141 -65 17 -14 49 -35 71 -46 23 -12 44 -27 46 -34 9 -22
-9 -55 -44 -81 -32 -24 -41 -26 -162 -28 l-129 -1 -14 26 c-16 31 -31 35 -147
40 -52 2 -62 6 -83 32 -12 16 -23 34 -23 39 1 25 41 96 52 92 7 -2 49 9 93 25
81 29 142 31 172 6z m-1435 -104 c34 -18 45 -50 24 -73 -9 -10 -16 -23 -16
-30 0 -8 -8 -10 -22 -6 l-23 6 21 -18 c12 -10 36 -26 53 -35 20 -11 31 -25 31
-38 0 -27 -17 -60 -32 -60 -12 0 -188 180 -188 193 0 4 14 0 31 -8 17 -9 38
-14 47 -12 12 2 5 9 -20 20 -43 18 -51 47 -14 47 19 0 23 4 19 20 -5 18 -2 19
28 14 19 -4 46 -13 61 -20z m1972 -33 c9 -8 16 -26 16 -42 0 -32 2 -33 33 -18
12 5 0 -10 -28 -35 -47 -43 -54 -46 -106 -46 -33 0 -61 5 -67 13 -5 6 -12 35
-13 64 -4 47 -2 53 19 58 12 3 22 10 22 16 0 16 104 6 124 -10z m-2087 -103
c35 -34 63 -66 63 -70 0 -4 -38 -8 -85 -8 l-85 0 -2 30 c-1 17 -2 36 -2 44 -1
13 34 66 44 66 2 0 33 -28 67 -62z m-282 -130 c-17 -58 -25 -100 -20 -108 11
-17 -27 -72 -93 -136 -56 -54 -71 -64 -102 -64 -31 1 -33 2 -15 12 59 32 69
53 95 181 15 75 66 137 112 137 27 0 30 -3 23 -22z m2395 -48 c27 -52 25 -69
-7 -80 -16 -6 -36 -15 -45 -20 -14 -8 -26 -2 -60 30 -24 22 -67 50 -95 62 -29
12 -53 25 -53 29 0 11 42 16 147 18 l93 1 20 -40z m-2329 -27 c5 -13 13 -21
19 -18 6 4 10 -19 10 -62 0 -96 -14 -113 -90 -113 -57 0 -85 12 -55 24 8 3 15
14 15 25 0 11 9 25 20 31 17 9 20 21 20 75 0 63 8 78 38 67 8 -3 18 -16 23
-29z m2114 -13 c28 -13 56 -31 63 -41 7 -10 20 -26 30 -35 12 -13 13 -19 4
-22 -6 -2 -12 -10 -12 -17 0 -7 -6 -15 -14 -18 -23 -9 -109 -137 -141 -210
-17 -37 -33 -67 -36 -67 -4 0 -10 21 -13 48 -13 94 -28 189 -47 290 -11 57
-17 107 -15 111 8 12 124 -13 181 -39z m-1901 12 c37 -22 50 -35 52 -55 4 -36
-19 -47 -95 -47 l-61 0 0 46 c0 53 14 84 38 84 9 0 39 -13 66 -28z m1516 -4
c11 -13 22 -42 26 -66 3 -23 10 -45 15 -48 5 -3 9 -15 9 -26 0 -21 14 -71 31
-113 36 -88 35 -183 -2 -202 -13 -7 -31 -13 -40 -13 -9 0 -32 -24 -53 -54 -37
-54 -37 -55 -20 -81 14 -21 18 -49 18 -128 1 -76 5 -106 16 -118 41 -45 70
-85 70 -96 0 -7 18 -36 40 -65 22 -29 40 -58 40 -65 0 -6 6 -13 13 -16 8 -3 7
-10 -7 -26 -18 -20 -18 -22 -3 -39 16 -17 15 -20 -13 -40 -31 -23 -60 -29 -60
-12 0 6 11 16 25 22 14 6 25 15 25 20 0 13 -9 10 -43 -16 -18 -13 -52 -34 -76
-46 -46 -23 -54 -21 -75 22 -9 18 -21 24 -56 26 -50 3 -44 -5 -110 152 -15 36
-37 88 -50 115 -13 28 -42 93 -66 144 l-43 95 31 38 c35 44 80 180 102 308 21
123 39 168 93 240 37 48 110 109 131 110 8 0 22 -10 32 -22z m773 -89 c17 -18
21 -19 36 -5 20 18 50 14 115 -15 29 -13 51 -30 56 -45 5 -13 13 -24 17 -24
22 0 43 -65 43 -133 0 -78 -32 -166 -60 -167 -8 0 -24 -7 -34 -15 -35 -26 -64
-19 -71 18 -13 65 -36 125 -55 142 -28 25 -38 10 -17 -26 9 -17 17 -38 17 -48
0 -9 6 -26 14 -37 22 -32 14 -99 -15 -123 -25 -21 -114 -45 -130 -35 -5 3 -9
15 -9 26 0 34 -48 108 -70 108 -23 0 -27 -15 -5 -23 20 -8 51 -77 50 -112 -1
-22 -10 -36 -35 -52 -18 -13 -41 -23 -51 -23 -11 0 -19 -4 -19 -10 0 -19 54
-10 92 16 21 15 38 30 38 34 0 5 27 11 61 15 37 4 63 12 66 21 3 8 13 14 22
14 10 0 24 11 31 25 11 20 20 24 52 23 37 -1 48 -10 29 -23 -5 -3 -17 -31 -26
-62 -14 -48 -28 -68 -81 -119 -36 -34 -77 -64 -91 -67 -30 -6 -93 10 -93 23 0
6 -9 10 -20 10 -22 0 -26 -20 -9 -37 8 -8 0 -17 -32 -32 -23 -12 -53 -21 -65
-21 -68 0 -167 68 -142 98 7 8 7 12 -2 12 -7 0 -10 7 -6 15 8 23 -5 74 -18 69
-18 -6 -33 8 -50 50 -18 43 -22 131 -6 141 6 4 8 10 5 15 -9 15 34 129 69 184
40 62 124 156 139 156 6 0 21 10 35 23 50 47 187 57 225 16z m-2853 -183 c-5
-15 -10 -34 -10 -42 0 -16 36 -19 45 -4 4 6 25 20 48 32 45 23 79 24 344 17
109 -3 112 -4 95 -22 -11 -12 -25 -17 -41 -14 -34 7 -129 -48 -152 -88 -10
-17 -35 -39 -54 -48 -38 -18 -58 -14 -98 21 -12 11 -45 17 -102 20 -82 4 -85
5 -85 28 0 26 -10 30 -28 12 -17 -17 -20 -9 -13 47 5 39 11 52 31 62 31 15 33
12 20 -21z m683 -27 l28 -46 -27 -64 c-20 -49 -28 -88 -33 -164 -5 -87 -8
-100 -23 -99 -81 4 -75 0 -93 62 -9 31 -21 62 -27 69 -13 16 -48 132 -48 160
0 13 12 29 33 42 17 11 55 36 82 56 28 19 57 34 65 33 8 -2 27 -24 43 -49z
m-273 -156 c0 -7 18 -58 40 -114 39 -103 41 -119 14 -119 -9 0 -30 -11 -48
-25 -18 -14 -37 -25 -42 -25 -11 1 -54 67 -54 83 0 17 41 186 53 221 10 27 11
27 24 10 7 -10 13 -24 13 -31z m-260 26 c93 -33 135 -145 93 -251 -9 -24 -20
-45 -23 -48 -4 -3 -9 -13 -13 -22 -3 -10 -27 -28 -52 -40 l-45 -22 -30 22
c-29 22 -51 27 -63 16 -7 -8 13 -54 25 -54 4 0 8 -22 8 -49 0 -41 -4 -51 -26
-66 -38 -25 -58 -26 -98 -4 -28 15 -36 16 -36 5 0 -19 19 -32 58 -41 37 -8 38
-17 22 -125 -17 -110 -17 -110 -50 -110 -22 0 -37 10 -61 40 -26 32 -39 40
-64 40 -42 0 -96 37 -117 80 -45 95 -51 123 -36 187 9 43 16 54 38 62 27 9 28
12 24 60 -10 113 75 213 182 213 32 0 44 4 44 14 0 30 32 76 63 89 39 17 113
19 157 4z m2171 -47 c22 -9 24 -14 21 -57 l-4 -47 -127 7 c-69 4 -127 8 -129
10 -2 1 7 19 19 39 17 30 27 36 54 36 18 0 39 7 46 16 14 17 69 15 120 -4z
m815 -181 c41 -27 89 -53 107 -56 47 -11 57 -23 57 -71 0 -38 -6 -51 -39 -87
-21 -23 -46 -57 -55 -74 -9 -18 -20 -33 -24 -33 -17 0 -198 41 -217 49 -18 8
-55 94 -55 130 0 6 19 35 43 64 23 28 56 84 72 122 28 66 30 68 33 37 3 -28
13 -39 78 -81z m-750 -19 c20 -24 33 -53 37 -82 10 -74 88 -130 183 -130 17 0
55 13 85 28 57 30 148 39 156 15 13 -39 -116 -83 -245 -83 -119 0 -336 22
-356 35 -10 8 -25 11 -32 8 -11 -4 -14 11 -14 75 0 44 3 93 6 109 8 38 47 62
104 63 40 0 49 -5 76 -38z m-1695 -67 c22 -46 99 -114 171 -152 l43 -22 -110
-1 c-143 0 -218 9 -211 25 3 9 -12 15 -50 20 -46 5 -55 10 -60 31 -3 13 -3 40
0 59 7 36 10 39 101 76 23 10 76 16 88 11 4 -2 17 -23 28 -47z m-369 28 c25
-32 38 -73 38 -127 0 -42 -6 -60 -31 -94 -16 -22 -29 -47 -28 -54 3 -28 -2
-40 -38 -75 -43 -41 -89 -63 -132 -63 -21 0 -32 -6 -36 -21 -9 -28 -40 -57
-72 -70 l-26 -10 7 43 c4 24 10 63 13 87 l6 43 18 -23 c10 -13 21 -21 25 -17
4 4 1 14 -5 22 -21 25 -7 111 24 151 31 42 66 53 98 32 32 -21 62 -4 33 18
-11 8 -30 15 -43 15 -13 0 -23 2 -23 5 0 8 93 95 102 95 4 0 15 14 25 30 20
35 25 36 45 13z m1334 -50 c33 -54 118 -221 143 -285 16 -40 39 -92 51 -116
18 -38 19 -47 9 -77 -10 -27 -10 -40 0 -61 6 -15 8 -31 4 -35 -13 -13 -209
-89 -230 -89 -38 0 -81 -21 -79 -38 1 -13 -8 -18 -34 -19 l-35 -2 30 14 c41
19 17 18 -103 -5 -56 -11 -119 -20 -139 -20 l-36 0 7 39 c5 34 3 42 -20 58
l-25 19 10 164 c6 91 12 187 14 215 l2 49 95 18 c120 24 184 55 257 129 32 32
60 59 63 59 3 0 10 -8 16 -17z m-574 -185 l89 -12 -6 -170 c-8 -224 -12 -253
-36 -266 -10 -6 -26 -27 -34 -46 -12 -29 -19 -35 -32 -28 -10 4 -36 9 -57 12
-26 3 -47 13 -62 31 -26 29 -27 21 7 271 11 80 24 149 28 153 5 5 5 22 1 38
-10 34 -16 33 102 17z m1324 -39 c139 -13 148 -20 145 -116 -1 -37 -4 -83 -8
-102 -5 -32 -7 -33 -20 -15 -12 16 -15 17 -23 4 -5 -8 -11 -19 -13 -24 -1 -5
-21 -11 -42 -15 -38 -6 -43 -4 -90 41 -27 26 -53 48 -57 48 -4 0 -5 13 -2 28
5 24 -3 39 -45 90 -28 34 -51 64 -51 67 0 8 87 6 206 -6z m-1776 -19 c197 -17
193 -15 205 -106 l7 -50 -55 -13 c-72 -16 -140 -60 -179 -116 -22 -32 -37 -44
-48 -39 -30 12 -186 16 -224 6 -34 -10 -44 -9 -71 8 -26 16 -50 20 -128 20
-89 0 -97 2 -108 22 -10 19 -9 24 7 33 10 5 38 29 60 53 25 25 51 42 64 42 37
0 117 58 147 106 l28 44 90 0 c50 0 142 -5 205 -10z m2420 -1 c0 -6 -14 -29
-32 -51 -25 -32 -28 -42 -17 -49 11 -6 6 -16 -24 -44 -20 -19 -37 -43 -37 -54
0 -29 -22 -40 -111 -56 -137 -24 -132 -26 -157 58 -12 40 -22 87 -22 104 0 34
32 80 64 93 33 13 336 12 336 -1z m-2141 -198 c9 -6 12 -19 7 -42 -11 -63 -10
-233 2 -237 7 -2 19 -18 27 -36 19 -39 75 -62 108 -44 28 14 108 4 119 -16 13
-23 71 -21 93 4 21 24 53 25 101 5 42 -17 91 -10 107 16 7 11 19 19 27 19 9 0
21 5 27 11 7 7 20 4 44 -10 44 -27 52 -27 92 9 57 49 84 60 114 45 33 -17 66
-3 93 40 11 17 25 32 32 33 7 1 33 5 58 8 30 4 55 15 75 35 24 23 38 28 72 26
46 -1 87 26 97 67 3 12 24 34 47 49 l41 27 28 -20 c16 -12 38 -32 50 -47 21
-27 27 -63 10 -63 -5 0 -10 -4 -10 -9 0 -4 25 -11 56 -14 62 -6 88 -24 109
-74 8 -18 21 -33 29 -33 19 0 20 12 4 28 -19 19 -1 26 72 28 62 1 75 -2 114
-28 51 -33 116 -102 116 -122 0 -7 44 -58 98 -112 84 -85 152 -177 152 -204 0
-5 -21 -10 -47 -13 -27 -2 -65 -9 -86 -15 -45 -12 -73 1 -172 80 -33 26 -64
48 -68 48 -5 0 -21 -14 -35 -32 -91 -107 -112 -125 -112 -97 0 13 74 106 104
131 20 16 20 17 3 36 -10 10 -32 27 -50 37 -30 16 -33 21 -33 69 0 55 -30 135
-51 136 -18 0 -16 -21 7 -76 17 -38 20 -59 14 -103 -10 -81 -19 -98 -76 -150
-28 -25 -67 -60 -85 -77 -18 -18 -43 -34 -56 -37 -12 -3 -53 -17 -92 -31 -39
-14 -93 -25 -121 -26 -90 0 -246 28 -297 55 -73 38 -162 110 -218 178 l-51 60
22 17 c16 12 19 19 11 25 -7 4 -20 0 -29 -8 -19 -16 -121 -36 -192 -38 -135
-3 -156 -3 -171 4 -13 6 -24 -2 -45 -32 -16 -22 -34 -41 -40 -41 -7 0 -24 -25
-39 -56 -15 -30 -34 -58 -41 -61 -8 -3 -31 6 -52 19 -77 51 -92 58 -131 58
-22 0 -63 -5 -91 -12 l-52 -12 -56 61 c-50 53 -64 62 -112 72 -30 7 -62 19
-72 27 -15 14 -15 19 -3 38 8 11 16 37 19 56 14 105 80 263 129 308 51 48 108
71 177 71 36 1 71 -3 79 -8z m2096 -62 c-4 -19 0 -58 11 -99 15 -59 16 -75 5
-112 -15 -49 -59 -128 -71 -128 -11 0 -60 59 -60 73 0 6 -17 28 -37 49 l-37
38 19 37 c20 38 86 108 141 150 37 28 37 29 29 -8z m-2600 -139 c66 -32 95
-113 57 -161 -18 -21 -22 -22 -63 -11 -24 6 -71 13 -104 16 -55 5 -63 3 -100
-25 l-40 -30 -8 53 c-4 30 -20 74 -37 101 -17 27 -30 52 -30 57 0 13 35 17
164 19 101 1 126 -2 161 -19z m24 -216 c37 -15 38 -16 34 -57 -5 -41 -3 -44
53 -92 137 -117 170 -134 217 -108 17 10 37 23 44 30 16 15 90 26 129 20 55
-9 143 -70 157 -110 9 -23 -17 -98 -37 -109 -9 -5 -16 -16 -16 -24 0 -44 -117
-143 -170 -144 -8 0 -42 34 -74 75 -32 41 -62 75 -65 75 -3 0 -30 23 -59 50
-47 44 -176 135 -242 170 -47 25 -120 93 -120 112 0 37 43 103 61 93 3 -3 15
4 25 15 23 23 17 23 63 4z m1309 -276 c-7 -4 -19 -8 -25 -8 -31 0 -9 -18 28
-23 23 -3 49 -13 58 -21 28 -28 -4 -43 -119 -55 -306 -31 -620 -49 -620 -36 0
3 13 32 29 64 19 37 26 62 20 68 -12 12 38 105 71 131 19 15 44 20 105 22 44
1 134 5 200 9 l120 6 73 -74 c52 -53 69 -77 60 -83z m-1483 118 c19 -8 35 -22
35 -30 0 -9 9 -16 20 -16 26 0 15 -27 -13 -33 -12 -3 -1 -3 26 -1 26 2 47 -1
47 -6 0 -6 7 -10 15 -10 23 0 94 -38 120 -64 13 -13 31 -26 41 -30 20 -8 9
-22 -21 -28 -13 -3 -1 -9 33 -17 28 -7 52 -17 52 -22 0 -11 -43 -11 -93 0 -20
5 -39 6 -42 1 -2 -4 30 -13 73 -20 42 -7 80 -18 84 -24 14 -21 8 -28 -19 -22
-16 3 -50 8 -78 12 -85 11 -45 -4 55 -22 94 -16 110 -24 110 -56 0 -14 -5 -15
-31 -8 -17 5 -36 16 -43 25 -10 13 -111 36 -341 77 -33 6 -64 14 -69 19 -16
15 26 11 116 -11 46 -11 94 -20 108 -19 l25 1 -25 8 c-14 4 -74 18 -135 30
-137 28 -137 28 -131 38 3 5 31 5 63 1 118 -17 138 -19 123 -10 -8 4 -50 14
-92 21 -53 9 -78 17 -78 26 0 8 -11 14 -25 14 -14 0 -25 5 -25 11 0 6 8 8 18
5 9 -2 51 -7 92 -10 90 -7 56 8 -43 18 -61 7 -97 24 -97 45 0 5 33 7 73 5 48
-2 64 0 47 6 -14 4 -38 9 -55 9 -16 1 -37 6 -45 11 -10 7 9 9 60 5 l75 -4 -62
10 c-35 6 -63 14 -63 18 0 4 28 6 63 4 59 -4 61 -3 37 11 -16 10 -19 16 -10
16 9 0 5 6 -10 15 -33 19 -9 19 35 1z m2343 -153 c29 -24 56 -43 60 -43 5 0
28 -20 53 -45 24 -24 50 -45 57 -45 14 0 14 -9 6 -74 -4 -28 -12 -46 -20 -46
-7 0 -56 21 -110 47 -73 35 -113 62 -165 112 -38 37 -69 71 -69 76 0 14 71 61
86 57 7 -1 15 2 19 8 8 12 15 9 83 -47z m377 -53 c37 -26 105 -106 105 -124 0
-3 -9 -10 -20 -16 -25 -13 -55 1 -133 65 -62 50 -68 66 -35 89 30 21 33 21 83
-14z m-826 -114 c24 -22 28 -68 6 -86 -9 -8 -70 -16 -158 -21 -78 -5 -165 -12
-194 -15 -39 -5 -70 -1 -124 16 -54 16 -92 21 -144 18 l-70 -3 -3 37 c-3 36
-2 37 38 48 42 11 413 29 551 26 60 -1 82 -5 98 -20z m-875 -17 c28 0 44 -3
36 -6 -43 -14 -44 -16 -6 -28 22 -6 41 -16 43 -21 2 -7 -81 -70 -110 -83 -5
-2 -21 8 -35 22 -23 21 -41 26 -110 32 -46 4 -95 10 -108 14 l-24 6 27 39 28
39 104 -7 c57 -3 127 -6 155 -7z m-323 -114 c21 -11 43 -14 78 -9 59 8 101
-13 127 -62 10 -18 27 -35 38 -38 20 -5 19 -7 -9 -31 -16 -13 -35 -24 -40 -25
-6 0 -51 16 -100 35 -118 47 -148 50 -245 31 -84 -17 -96 -15 -102 18 -2 14 7
22 37 31 58 19 147 53 153 60 9 9 32 5 63 -10z m458 -31 l21 -26 10 27 c10 26
13 27 58 21 26 -3 74 -9 107 -12 36 -4 90 -20 133 -40 66 -30 73 -36 67 -56
-12 -38 -34 -56 -77 -60 -37 -3 -41 -1 -59 33 -10 21 -29 45 -41 53 -30 21
-75 20 -87 -1 -9 -17 -11 -17 -29 3 -18 19 -23 20 -118 8 -54 -6 -101 -10
-103 -8 -9 8 22 51 47 67 37 23 47 21 71 -9z"/>
<path d="M2315 3693 c-16 -9 -59 -40 -95 -70 -104 -86 -179 -112 -230 -81 -26
17 -36 3 -20 -28 18 -32 7 -40 -70 -49 -63 -7 -110 -40 -110 -76 0 -27 24 -19
28 9 5 31 40 29 52 -4 6 -14 10 -49 10 -77 1 -29 5 -72 9 -96 26 -131 201
-151 218 -25 8 64 -35 219 -74 265 -11 14 -11 18 2 29 8 7 15 10 15 6 0 -4 14
1 31 9 17 9 32 15 34 13 2 -2 10 -43 19 -91 17 -96 46 -159 87 -190 24 -17 31
-18 63 -7 54 18 69 54 67 167 -1 96 -15 137 -63 190 -34 36 -14 64 66 93 20 7
32 7 42 -1 15 -13 34 -4 34 17 0 20 -76 18 -115 -3z m-47 -121 c54 -57 79
-183 47 -229 -18 -26 -77 -47 -105 -38 -30 10 -56 71 -64 151 -6 76 -6 77 54
124 33 26 37 25 68 -8z m-243 -147 c15 -19 36 -64 47 -100 18 -62 18 -68 3
-92 -20 -31 -77 -55 -119 -51 -26 3 -33 9 -44 42 -8 24 -12 76 -10 130 l3 91
33 2 c19 1 36 4 39 7 12 12 22 5 48 -29z"/>
<path d="M2566 3494 c-8 -21 -8 -20 10 -38 9 -10 16 -34 16 -61 1 -25 5 -45
10 -45 4 0 8 -6 8 -14 0 -7 7 -19 15 -26 8 -7 15 -21 15 -31 0 -11 7 -19 15
-19 8 0 15 -6 15 -12 0 -7 11 -21 24 -30 21 -15 26 -16 36 -3 10 12 10 15 0
15 -8 0 -10 9 -6 26 6 21 4 25 -8 21 -11 -5 -16 0 -16 14 0 11 -4 17 -10 14
-5 -3 -10 3 -10 14 0 13 -5 19 -14 15 -19 -7 -30 14 -16 31 8 9 8 15 0 20 -6
3 -8 11 -5 16 4 5 -1 12 -10 15 -13 5 -15 14 -10 40 5 27 3 34 -10 34 -8 0
-15 5 -15 10 0 16 -27 11 -34 -6z"/>
<path d="M2509 3186 c-55 -14 -110 -46 -215 -123 -150 -110 -297 -159 -407
-134 -31 7 -61 19 -67 27 -20 23 -25 17 -25 -26 0 -22 3 -40 7 -40 5 0 8 7 8
15 0 16 4 18 37 9 13 -4 20 -11 16 -20 -3 -8 -1 -20 5 -27 5 -6 15 -32 22 -55
9 -34 15 -42 27 -37 11 4 33 -10 67 -44 82 -80 123 -96 241 -96 94 0 104 2
170 35 156 78 265 235 265 384 0 54 -4 69 -25 94 -35 42 -70 52 -126 38z m92
-44 c37 -33 48 -95 27 -156 l-13 -40 -62 3 c-73 3 -124 -19 -181 -79 -28 -31
-45 -40 -70 -40 -48 0 -102 -31 -164 -95 l-54 -56 -40 29 c-22 16 -48 41 -58
56 -17 26 -17 28 0 40 14 11 15 17 4 50 -6 21 -10 39 -8 41 2 2 22 7 45 11 42
6 42 6 48 -30 8 -39 22 -44 69 -26 23 8 26 15 26 59 0 47 2 52 33 67 17 9 53
33 79 53 116 88 213 140 265 141 13 0 37 -13 54 -28z m-21 -227 c21 -25 2 -65
-63 -130 -99 -99 -217 -145 -333 -130 -30 3 -54 8 -54 9 0 16 24 66 31 66 6 0
26 16 46 35 36 35 58 39 46 8 -5 -13 -2 -15 13 -9 42 16 42 17 31 -42 -6 -32
-6 -32 17 -17 17 11 22 22 19 39 -3 16 2 31 16 45 12 12 21 29 22 39 0 16 1
16 7 0 7 -17 8 -17 19 2 9 13 9 21 2 26 -6 3 13 21 43 40 57 37 116 45 138 19z"/>
<path d="M578 3539 c-14 -8 -16 -19 -11 -59 l6 -50 -29 4 c-16 3 -51 8 -78 11
-31 3 -68 17 -98 36 -63 41 -71 32 -14 -15 36 -29 53 -36 88 -36 31 0 68 -12
133 -45 92 -46 185 -79 185 -66 0 15 -46 49 -81 60 -47 15 -64 52 -55 121 6
44 4 50 -11 50 -10 0 -26 -5 -35 -11z"/>
</g>
</svg>
